<?xml version="1.0" standalone="no"?>
<!DOCTYPE svg PUBLIC "-//W3C//DTD SVG 20010904//EN"
 "http://www.w3.org/TR/2001/REC-SVG-20010904/DTD/svg10.dtd">
<svg version="1.0" xmlns="http://www.w3.org/2000/svg"
 width="500.000000pt" height="500.000000pt" viewBox="0 0 500.000000 500.000000"
 preserveAspectRatio="xMidYMid meet">
<metadata>
Created by potrace 1.11, written by Peter Selinger 2001-2013
</metadata>
<g transform="translate(0.000000,500.000000) scale(0.100000,-0.100000)"
fill="#000000" stroke="none">
<path d="M1263 3752 l-1232 -1237 1235 -1235 1234 -1235 1235 1235 1235 1235
-543 545 c-299 300 -853 857 -1232 1238 -379 380 -692 692 -695 691 -3 -1
-559 -557 -1237 -1237z m1381 479 c3 -5 8 -66 11 -136 3 -104 8 -132 25 -159
l20 -33 114 5 c63 2 126 2 140 -2 l26 -6 0 -140 0 -140 -165 0 -165 0 -2 -167
-3 -168 -142 -3 -143 -3 0 171 0 170 -170 0 -170 0 0 139 c0 117 2 140 16 145
9 3 78 6 154 6 76 0 145 3 154 6 14 5 16 29 16 165 l0 159 139 0 c77 0 142 -4
145 -9z m1236 -1281 l0 -140 -92 0 c-51 0 -117 -3 -145 -6 l-53 -7 0 147 0
146 145 0 145 0 0 -140z m370 -435 l0 -145 -515 0 -515 0 0 145 0 145 515 0
515 0 0 -145z m-2468 -2 c-2 -76 -5 -139 -6 -140 -1 -1 -231 -3 -511 -3 l-510
-2 -3 141 -3 141 519 0 519 0 -5 -137z m2098 -428 l0 -145 -145 0 -145 0 0
145 0 145 145 0 145 0 0 -145z m-1533 -487 l153 -153 155 155 155 155 85 -85
85 -85 -150 -150 c-82 -83 -150 -155 -150 -160 0 -5 68 -77 150 -160 l150
-150 -85 -85 -85 -85 -155 155 -155 155 -155 -155 -155 -155 -80 80 c-44 44
-80 84 -80 90 0 6 68 78 150 160 l150 150 -150 150 c-82 83 -150 155 -150 160
0 10 150 165 160 165 2 0 73 -69 157 -152z"/>
</g>
</svg>
